
        <svg xmlns="http://www.w3.org/2000/svg" xmlns:xlink="http://www.w3.org/1999/xlink" version="1.1" width="3187.5" 
        height="1264.6026030612568" viewBox="0 0 3187.5 1264.6026030612568">
			
			<g transform="scale(9.375) translate(10, 10)">
				<defs id="SvgjsDefs4918"></defs><g id="SvgjsG4919" featureKey="symbolFeature-0" transform="matrix(1,0,0,1,0,8.211000442504883)" fill="#faf7ee"><g xmlns="http://www.w3.org/2000/svg"><g><path d="M97.938,68.771h-6.316V20.81c0-1.115-0.905-2.021-2.021-2.021H10.399c-1.115,0-2.021,0.906-2.021,2.021v47.961H2.062    C0.924,68.771,0,69.694,0,70.832v2.084c0,0.103,0.008,0.204,0.022,0.306c0.527,3.521,3.348,7.447,7.159,7.922    c0.083,0.01,0.169,0.017,0.252,0.017l84.51,0.071h0.003c4.404,0,7.604-4.197,8.041-8.085c0.009-0.075,0.013-0.152,0.013-0.23    v-2.084C100,69.694,99.076,68.771,97.938,68.771z M12.42,22.831h75.16v45.939H59.985c-0.133,0-0.262,0.016-0.386,0.04H41.16    c-0.128-0.025-0.261-0.04-0.396-0.04H12.42V22.831z M91.948,77.107L7.586,77.036c-1.461-0.261-3.024-2.16-3.434-4.143h35.086    c0.702,1.246,2.017,2.085,3.519,2.085h15.233c1.502,0,2.816-0.839,3.52-2.085h34.35C95.538,74.926,93.854,77.107,91.948,77.107z     M38.84,37.498c-0.814-0.814-2.133-0.814-2.947,0l-8.689,8.689c-0.814,0.814-0.814,2.133,0,2.948l8.689,8.688    c0.407,0.407,0.94,0.611,1.474,0.611s1.066-0.204,1.474-0.611c0.814-0.813,0.814-2.133,0-2.947l-7.216-7.215l7.216-7.216    C39.654,39.631,39.654,38.312,38.84,37.498z M59.361,57.823c0.406,0.407,0.939,0.611,1.474,0.611c0.533,0,1.066-0.204,1.474-0.611    l8.688-8.688c0.814-0.814,0.814-2.133,0-2.948l-8.688-8.689c-0.814-0.814-2.134-0.814-2.947,0c-0.814,0.814-0.814,2.133,0,2.947    l7.215,7.216l-7.215,7.215C58.547,55.69,58.547,57.01,59.361,57.823z M41.793,62.275c0.299,0.148,0.617,0.22,0.931,0.22    c0.765,0,1.5-0.422,1.866-1.152l12.506-25.011c0.515-1.03,0.098-2.281-0.933-2.796c-1.029-0.513-2.281-0.098-2.797,0.932    L40.861,59.479C40.346,60.509,40.763,61.76,41.793,62.275z"></path></g></g></g><g id="SvgjsG4920" featureKey="nameFeature-0" transform="matrix(3.6737493007769424,0,0,3.6737493007769424,123.96838383633832,-40.99052798444307)" fill="#faf7ee"><path d="M3.4 32.4 c-0.37332 0 -0.79356 0.019609 -1.2602 0.059608 s-0.91336 0.06 -1.34 0.06 s-0.80668 -0.03332 -1.14 -0.1 s-0.54 -0.20668 -0.62 -0.42 c-0.16 -0.13332 -0.16 -0.28664 0 -0.45996 s0.30668 -0.32664 0.44 -0.45996 c0.50668 -0.05332 0.94668 -0.09332 1.32 -0.12 s0.72 -0.06 1.04 -0.1 s0.62668 -0.08 0.92 -0.12 s0.6 -0.08668 0.92 -0.14 c0.4 -1.4933 0.77332 -2.92 1.12 -4.28 s0.68 -2.7067 1 -4.04 s0.63332 -2.68 0.94 -4.04 s0.63336 -2.7867 0.98004 -4.28 c0.24 -0.34668 0.44 -0.52668 0.6 -0.54 s0.42668 -0.0066408 0.8 0.020039 c0.16 0.85332 0.28 1.5733 0.36 2.16 s0.15332 1.18 0.22 1.78 s0.14668 1.2667 0.24 2 s0.22 1.66 0.38 2.78 c0.10668 1.1467 0.25336 2.2734 0.44004 3.38 s0.34668 2.2467 0.48 3.42 c0.69332 -0.10668 1.36 -0.22 2 -0.34 s1.2067 -0.22668 1.7 -0.32 s0.89332 -0.16664 1.2 -0.21996 s0.46 -0.06664 0.46 -0.039961 c0.08 0.24 -0.04668 0.47332 -0.38 0.7 s-0.76664 0.45336 -1.3 0.68004 s-1.1066 0.44 -1.72 0.64 s-1.16 0.38 -1.64 0.54 c0.05332 0.50668 0.14664 1.14 0.27996 1.9 s0.27332 1.5667 0.42 2.42 s0.3 1.7133 0.46 2.58 s0.3 1.6534 0.42 2.36 s0.20668 1.2934 0.26 1.76 s0.05332 0.72668 0 0.78 c-0.45332 0.05332 -0.78 0.0066408 -0.98 -0.14004 s-0.44668 -0.27336 -0.74 -0.38004 c-0.21332 -1.76 -0.48 -3.5533 -0.8 -5.38 s-0.57332 -3.6467 -0.76 -5.46 c-0.61332 0.13332 -1.3933 0.31332 -2.34 0.54 s-1.9267 0.42 -2.94 0.58 c-0.16 0.58668 -0.30668 1.24 -0.44 1.96 s-0.26664 1.4067 -0.39996 2.06 s-0.24664 1.24 -0.33996 1.76 s-0.18 0.86 -0.26 1.02 c-0.13332 0.13332 -0.36664 0.22 -0.69996 0.26 s-0.60664 -0.04668 -0.81996 -0.26 c0 -0.16 0.06 -0.52668 0.18 -1.1 s0.26 -1.2066 0.42 -1.9 s0.32668 -1.3666 0.5 -2.02 s0.31332 -1.1666 0.42 -1.54 z M5.3196 30.4396 c0.4 -0.08 0.84004 -0.16641 1.32 -0.25973 s0.92668 -0.19332 1.34 -0.3 s0.77332 -0.19336 1.08 -0.26004 s0.48668 -0.11336 0.54 -0.14004 c-0.05332 -0.58668 -0.1 -1.0734 -0.14 -1.46 s-0.08 -0.79336 -0.12 -1.22 s-0.08668 -0.92668 -0.14 -1.5 s-0.13332 -1.3533 -0.24 -2.34 c-0.21332 -1.68 -0.36664 -2.9333 -0.45996 -3.76 s-0.18 -1.0934 -0.26 -0.80004 c-0.37332 1.44 -0.7 2.6867 -0.98 3.74 s-0.53332 2.0266 -0.76 2.92 s-0.43336 1.7666 -0.62004 2.62 s-0.37336 1.7733 -0.56004 2.76 z M21.04 27.4 c0.66668 0.10668 1.2202 0.25332 1.6602 0.44 s0.78668 0.39336 1.04 0.62004 s0.45332 0.46 0.6 0.7 s0.28668 0.46668 0.42 0.68 c-0.02668 0.10668 -0.15336 0.09336 -0.38004 -0.039961 s-0.44668 -0.26664 -0.66 -0.39996 c-0.58668 -0.37332 -1.2934 -0.6 -2.12 -0.68 s-1.5934 -0.03332 -2.3 0.14 s-1.2734 0.47332 -1.7 0.9 s-0.53336 0.94668 -0.32004 1.56 s0.59332 1.1466 1.14 1.6 s1.1534 0.86 1.82 1.22 s1.3334 0.68668 2 0.98 s1.2134 0.58664 1.64 0.87996 c0.53332 -0.29332 0.98664 -0.54 1.36 -0.74 s0.70664 -0.38668 0.99996 -0.56 s0.59332 -0.33332 0.9 -0.48 s0.66 -0.31336 1.06 -0.50004 c0.05332 -0.02668 0.1 -0.04 0.14 -0.04 s0.04 0.03332 0 0.1 s-0.14668 0.17336 -0.32 0.32004 s-0.44664 0.35336 -0.81996 0.62004 c-0.18668 0.13332 -0.53336 0.36 -1.04 0.68 s-1.0534 0.66668 -1.64 1.04 c0.32 0.29332 0.57332 0.6 0.76 0.92 c0.16 0.29332 0.27332 0.60664 0.34 0.93996 s0.0066796 0.67332 -0.18 1.02 c-0.53332 0.85332 -1.1333 1.52 -1.8 2 s-1.28 0.81332 -1.84 1 c-0.37332 0.13332 -0.78664 0.14664 -1.24 0.039961 s-0.81332 -0.32 -1.08 -0.64 c-0.29332 -0.42668 -0.36664 -0.86 -0.21996 -1.3 s0.39336 -0.86668 0.74004 -1.28 s0.74668 -0.80664 1.2 -1.18 s0.85332 -0.70664 1.2 -0.99996 c-0.24 -0.26668 -0.70668 -0.59336 -1.4 -0.98004 s-1.4066 -0.81336 -2.14 -1.28 s-1.3933 -0.96668 -1.98 -1.5 s-0.90668 -1.0666 -0.96 -1.6 c-0.10668 -0.58668 -0.033359 -1.1534 0.21996 -1.7 s0.62664 -1.0267 1.12 -1.44 s1.0666 -0.72 1.72 -0.92 s1.34 -0.24668 2.06 -0.14 z M20.68 41.12 c0.29332 0.13332 0.62668 0.13328 1 -0.000039062 s0.72664 -0.32664 1.06 -0.57996 s0.62664 -0.53332 0.87996 -0.84 s0.42 -0.58 0.5 -0.82 c0.08 -0.21332 0.0066796 -0.44664 -0.22 -0.69996 s-0.46 -0.46 -0.7 -0.62 c-0.29332 0.21332 -0.62664 0.48664 -0.99996 0.81996 s-0.7 0.67332 -0.98 1.02 s-0.48668 0.68 -0.62 1 s-0.10664 0.56 0.08004 0.72 z M28.84 11.2 c0.02668 0.08 0.0534 0.42 0.080076 1.02 s0.04668 1.3667 0.06 2.3 s0.02 1.9933 0.02 3.18 s0.0066796 2.4067 0.02 3.66 s0.02 2.4933 0.02 3.72 l0 3.38 l0 2.6 l0 1.42 c0.29332 -1.3067 0.71332 -2.3867 1.26 -3.24 s1.0467 -1.3066 1.5 -1.36 c0.53332 -0.10668 0.94 0.0066408 1.22 0.33996 s0.50668 0.78664 0.68 1.36 s0.34664 1.2133 0.51996 1.92 s0.40664 1.38 0.69996 2.02 s0.69332 1.2067 1.2 1.7 s1.2 0.79332 2.08 0.9 c-0.69332 0.58668 -1.3133 0.85336 -1.86 0.80004 s-1.0334 -0.29332 -1.46 -0.72 s-0.8 -0.97336 -1.12 -1.64 s-0.58668 -1.32 -0.8 -1.96 s-0.38664 -1.2 -0.51996 -1.68 s-0.22664 -0.76 -0.27996 -0.84 c-0.16 -0.21332 -0.33332 -0.22664 -0.52 -0.039961 s-0.38 0.48 -0.58 0.88 s-0.38668 0.86 -0.56 1.38 s-0.32664 1.0133 -0.45996 1.48 s-0.24 0.86 -0.32 1.18 s-0.12 0.46668 -0.12 0.44 c-0.08 0.34668 -0.14668 0.8 -0.2 1.36 s-0.08664 1.1133 -0.09996 1.66 s-0.01332 1.04 0 1.48 s0.04664 0.71332 0.09996 0.82 c-0.18668 0 -0.45336 -0.06 -0.80004 -0.18 s-0.61336 -0.18 -0.80004 -0.18 l0 -3.14 l0 -4.32 l-0.02 -5.1 l-0.08 -5.5 l-0.14 -5.52 l-0.24 -5.18 c0 -0.05332 0.16 -0.15332 0.48 -0.3 s0.66668 -0.18 1.04 -0.1 z M40.160000000000004 22.4 c0.26668 -0.05332 0.42664 0.10672 0.47996 0.48004 s0 0.65332 -0.16 0.84 c-0.29332 0.24 -0.48 0.44668 -0.56 0.62 s-0.26668 0.28664 -0.56 0.33996 c-0.16 -0.02668 -0.3 -0.033359 -0.42 -0.020039 s-0.22 -0.20668 -0.3 -0.66 c0.10668 -0.29332 0.27336 -0.58664 0.50004 -0.87996 s0.56668 -0.53332 1.02 -0.72 z M40.28 27.6 c0.13332 1.28 0.22676 2.6867 0.28008 4.22 s0.14664 3.14 0.27996 4.82 c0.10668 0.85332 0.21336 1.52 0.32004 2 s0.18668 0.93332 0.24 1.36 c-0.42668 0.08 -0.76 0.07332 -1 -0.02 s-0.46668 -0.20664 -0.68 -0.33996 c-0.05332 -0.42668 -0.11332 -1.1334 -0.18 -2.12 s-0.13336 -2.06 -0.20004 -3.22 s-0.13336 -2.2867 -0.20004 -3.38 s-0.12668 -1.96 -0.18 -2.6 c0.10668 -0.05332 0.19336 -0.13332 0.26004 -0.24 s0.14 -0.2 0.22 -0.28 s0.18668 -0.14668 0.32 -0.2 s0.30664 -0.05332 0.51996 0 z M45.64 32.16 c0.61332 0.13332 1.1668 0.24016 1.6601 0.32016 s0.98664 0.15332 1.48 0.22 s1.04 0.12668 1.64 0.18 s1.3133 0.12 2.14 0.2 c0.24 0.26668 0.4 0.48668 0.48 0.66 s0.18668 0.44664 0.32 0.81996 c-0.85332 -0.16 -1.6266 -0.28 -2.32 -0.36 s-1.38 -0.14668 -2.06 -0.2 s-1.38 -0.1 -2.1 -0.14 s-1.52 -0.1 -2.4 -0.18 c-0.02668 1.36 0 2.5667 0.08 3.62 s0.08 2.0066 0 2.86 c-0.16 0.02668 -0.28668 0 -0.38 -0.08 s-0.18 -0.17332 -0.26 -0.28 s-0.16668 -0.22 -0.26 -0.34 s-0.22 -0.20668 -0.38 -0.26 c0.08 -3.68 0.06668 -7.0668 -0.04 -10.16 s-0.13336 -6.0532 -0.08004 -8.88 c0 -0.53332 0.0066796 -1.14 0.02 -1.82 s0.02 -1.3467 0.02 -2 s-0.01332 -1.24 -0.04 -1.76 s-0.08 -0.87332 -0.16 -1.06 c0.18668 -0.21332 0.36668 -0.34664 0.54 -0.39996 s0.48664 -0.09332 0.93996 -0.12 c0.05332 3.2533 0.05332 6.4668 0 9.64 s-0.05332 6.1868 0 9.04 c0.45332 -0.34668 0.93332 -0.77336 1.44 -1.28 s0.98 -1 1.42 -1.48 s0.82 -0.9 1.14 -1.26 s0.52 -0.55332 0.6 -0.58 c0.24 0.21332 0.48668 0.39332 0.74 0.54 s0.38 0.20668 0.38 0.18 c-0.66668 0.74668 -1.36 1.54 -2.08 2.38 s-1.5467 1.5 -2.48 1.98 z"></path></g>
			</g>
		</svg>
	